<svg xmlns="http://www.w3.org/2000/svg" xmlns:xlink="http://www.w3.org/1999/xlink" width="388.229" height="218.379" viewBox="0 0 388.229 218.379">
  <defs>
    <clipPath id="clip-path">
      <path id="Path_179" data-name="Path 179" d="M397.5-2777.436H785.729v-107.708H397.5Z" fill="none"/>
    </clipPath>
    <clipPath id="clip-path-2">
      <rect id="Rectangle_40" data-name="Rectangle 40" width="65535" height="65535" transform="translate(-32768 -32767)" fill="none"/>
    </clipPath>
    <clipPath id="clip-path-3">
      <path id="Path_175" data-name="Path 175" d="M630.219-2857.914,595.366-2878a7.006,7.006,0,0,0-7.5,0l-34.854,20.089a7.632,7.632,0,0,0-3.872,6.536v40.178a7.63,7.63,0,0,0,3.872,6.535l34.854,20.089a7.007,7.007,0,0,0,7.5,0l34.853-20.089a7.629,7.629,0,0,0,3.873-6.535v-40.178a8.855,8.855,0,0,0-3.873-6.536m-38.484,53.975a27.322,27.322,0,0,1-27.35-27.35,27.169,27.169,0,0,1,27.35-27.351,27.169,27.169,0,0,1,27.351,27.351,27.322,27.322,0,0,1-27.351,27.35" fill="none"/>
    </clipPath>
    <linearGradient id="linear-gradient" x1="0.286" y1="0.243" x2="0.33" y2="0.243" gradientUnits="objectBoundingBox">
      <stop offset="0" stop-color="#fff"/>
      <stop offset="0.1" stop-color="#fff"/>
      <stop offset="0.2" stop-color="#fff"/>
      <stop offset="0.3" stop-color="#fff"/>
      <stop offset="0.4" stop-color="#fff"/>
      <stop offset="0.5" stop-color="#fff"/>
      <stop offset="0.6" stop-color="#fff"/>
      <stop offset="0.7" stop-color="#fff"/>
      <stop offset="0.8" stop-color="#fff"/>
      <stop offset="0.9" stop-color="#fff"/>
      <stop offset="1" stop-color="#fff"/>
    </linearGradient>
    <linearGradient id="linear-gradient-2" x1="0.286" y1="0.243" x2="0.33" y2="0.243" gradientUnits="objectBoundingBox">
      <stop offset="0" stop-color="#e6216d"/>
      <stop offset="0.1" stop-color="#e4216d"/>
      <stop offset="0.2" stop-color="#df216d"/>
      <stop offset="0.3" stop-color="#d9216f"/>
      <stop offset="0.4" stop-color="#d12170"/>
      <stop offset="0.5" stop-color="#c82172"/>
      <stop offset="0.6" stop-color="#bc2174"/>
      <stop offset="0.7" stop-color="#af2176"/>
      <stop offset="0.8" stop-color="#a02178"/>
      <stop offset="0.9" stop-color="#90217a"/>
      <stop offset="1" stop-color="#7e217c"/>
    </linearGradient>
    <clipPath id="clip-path-5">
      <path id="Path_178" data-name="Path 178" d="M607.468-2832.742,586.653-2846.3a2.618,2.618,0,0,0-4.115,2.179v27.108a2.583,2.583,0,0,0,4.115,2.178l20.815-13.554a2.5,2.5,0,0,0,0-4.357" fill="none"/>
    </clipPath>
    <linearGradient id="linear-gradient-3" x1="0.304" y1="0.244" x2="0.317" y2="0.244" xlink:href="#linear-gradient"/>
    <linearGradient id="linear-gradient-4" x1="0.304" y1="0.244" x2="0.317" y2="0.244" xlink:href="#linear-gradient-2"/>
  </defs>
  <g id="Group_321" data-name="Group 321" transform="translate(-397.5 -801.622)">
    <g id="Group_249" data-name="Group 249" transform="translate(417.5 801.622)">
      <path id="Path_171" data-name="Path 171" d="M0,0A20,20,0,0,0-20,20V198.379a20,20,0,0,0,20,20H348.229a20,20,0,0,0,20-20V20a20,20,0,0,0-20-20Z" fill="#fff"/>
    </g>
    <g id="Group_264" data-name="Group 264" transform="translate(0 3742.1)" clip-path="url(#clip-path)">
      <g id="Group_263" data-name="Group 263" style="isolation: isolate">
        <g id="Group_262" data-name="Group 262">
          <g id="Group_261" data-name="Group 261" clip-path="url(#clip-path-2)">
            <g id="Group_255" data-name="Group 255" clip-path="url(#clip-path-3)">
              <g id="Group_253" data-name="Group 253">
                <g id="Group_252" data-name="Group 252" clip-path="url(#clip-path-2)">
                  <g id="Group_251" data-name="Group 251" transform="translate(549.095 -2831.276)">
                    <path id="Path_173" data-name="Path 173" d="M-549.095-910.824h1920v3742.1h-1920Z" fill="url(#linear-gradient)"/>
                  </g>
                </g>
              </g>
              <g id="Group_254" data-name="Group 254" transform="translate(549.095 -2831.276)">
                <path id="Path_174" data-name="Path 174" d="M-549.095-910.824h1920v3742.1h-1920Z" fill="url(#linear-gradient-2)"/>
              </g>
            </g>
            <g id="Group_260" data-name="Group 260" clip-path="url(#clip-path-5)">
              <g id="Group_258" data-name="Group 258">
                <g id="Group_257" data-name="Group 257" clip-path="url(#clip-path-2)">
                  <g id="Group_256" data-name="Group 256" transform="translate(582.772 -2830.515)">
                    <path id="Path_176" data-name="Path 176" d="M-582.772-911.585h1920v3742.1h-1920Z" fill="url(#linear-gradient-3)"/>
                  </g>
                </g>
              </g>
              <g id="Group_259" data-name="Group 259" transform="translate(582.772 -2830.515)">
                <path id="Path_177" data-name="Path 177" d="M-582.772-911.585h1920v3742.1h-1920Z" fill="url(#linear-gradient-4)"/>
              </g>
            </g>
          </g>
        </g>
      </g>
    </g>
  </g>
</svg>
