<svg xmlns="http://www.w3.org/2000/svg" width="29.305" height="29.305" viewBox="0 0 29.305 29.305">
  <g id="Group_287" data-name="Group 287" transform="translate(26.165)">
    <path id="Path_202" data-name="Path 202" d="M0,0H-23.025a3.14,3.14,0,0,0-3.14,3.14V26.165a3.14,3.14,0,0,0,3.14,3.14h8.978V19.342h-4.121V14.653h4.121V11.078c0-4.065,2.42-6.311,6.127-6.311a24.947,24.947,0,0,1,3.632.317v3.99H-6.334a2.345,2.345,0,0,0-2.644,2.534v3.045h4.5L-5.2,19.342h-3.78v9.963H0a3.14,3.14,0,0,0,3.14-3.14V3.14A3.14,3.14,0,0,0,0,0" fill="#fff"/>
  </g>
</svg>
