<svg xmlns="http://www.w3.org/2000/svg" width="29.305" height="29.305" viewBox="0 0 29.305 29.305">
  <g id="Group_289" data-name="Group 289" transform="translate(26.165)">
    <path id="Path_204" data-name="Path 204" d="M0,0H-23.025a3.14,3.14,0,0,0-3.14,3.14V26.165a3.14,3.14,0,0,0,3.14,3.14H0a3.14,3.14,0,0,0,3.14-3.14V3.14A3.14,3.14,0,0,0,0,0M-14.514,15.052c-5.932-4.305-5.872-4.316-7.465-5.556V7.85a1.57,1.57,0,0,1,1.57-1.57H-2.617a1.569,1.569,0,0,1,1.57,1.57V9.5c-1.594,1.241-1.532,1.251-7.464,5.556-.687.5-2.054,1.708-3,1.694-.948.014-2.313-1.193-3-1.694m13.467-2.9v9.3a1.569,1.569,0,0,1-1.57,1.569H-20.409a1.569,1.569,0,0,1-1.57-1.569v-9.3c.913.706,2.18,1.651,6.234,4.593.927.676,2.484,2.1,4.232,2.094,1.759.009,3.339-1.442,4.234-2.1,4.052-2.941,5.319-3.886,6.232-4.592" fill="#fff"/>
  </g>
</svg>
