<svg xmlns="http://www.w3.org/2000/svg" xmlns:xlink="http://www.w3.org/1999/xlink" width="273" height="78.139" viewBox="0 0 273 78.139">
  <defs>
    <clipPath id="clip-path">
      <path id="Path_214" data-name="Path 214" d="M0,0H273V-78.139H0Z" fill="none"/>
    </clipPath>
  </defs>
  <g id="Group_320" data-name="Group 320" transform="translate(0 78.139)">
    <g id="Group_306" data-name="Group 306" clip-path="url(#clip-path)">
      <g id="Group_299" data-name="Group 299" transform="translate(93.989 -43.226)">
        <path id="Path_207" data-name="Path 207" d="M0,0V3.831c0,5.391-2.731,7.661-7.094,7.661a8.137,8.137,0,0,1-4.185-1.029v8.655H-16.6V-7.129h3.512l.851,1.17a7.575,7.575,0,0,1,5.143-1.7C-2.731-7.661,0-5.391,0,0M-5.32.142A2.682,2.682,0,0,0-8.264-2.837,2.688,2.688,0,0,0-11.279.035V3.8A2.721,2.721,0,0,0-8.264,6.668,2.682,2.682,0,0,0-5.32,3.689Z" fill="#fff"/>
      </g>
      <g id="Group_300" data-name="Group 300" transform="translate(107.786 -50.71)">
        <path id="Path_208" data-name="Path 208" d="M0,0V4.611a6.731,6.731,0,0,0-1.844-.319A3.311,3.311,0,0,0-5.321,7.91V18.444h-5.32V.355h3.512L-6.1,1.809A8.322,8.322,0,0,1-.851-.035,6.929,6.929,0,0,1,0,0" fill="#fff"/>
      </g>
      <g id="Group_301" data-name="Group 301" transform="translate(109.631 -39.573)">
        <path id="Path_209" data-name="Path 209" d="M0,0V-3.476c0-4.788,3.05-7.838,8.229-7.838,5.249,0,8.3,3.05,8.3,7.838V0c0,4.788-3.051,7.839-8.265,7.839S0,4.788,0,0M11.208-.035V-3.44c0-2.022-.957-3.086-2.944-3.086S5.32-5.462,5.32-3.44V-.035c0,2.021.923,3.086,2.909,3.086,2.022,0,2.979-1.065,2.979-3.086" fill="#fff"/>
      </g>
      <g id="Group_302" data-name="Group 302" transform="translate(145.348 -59.577)">
        <path id="Path_210" data-name="Path 210" d="M0,0V27.311H-3.511L-4.363,26.1a7.418,7.418,0,0,1-5.143,1.738c-4.4,0-7.129-2.27-7.129-7.661V16.351c0-5.391,2.731-7.661,7.129-7.661A8.132,8.132,0,0,1-5.321,9.719V0ZM-5.321,20.147v-3.76c0-1.915-1.241-2.873-3.05-2.873a2.7,2.7,0,0,0-2.944,2.979V20.04a2.7,2.7,0,0,0,2.944,2.98,2.731,2.731,0,0,0,3.05-2.873" fill="#fff"/>
      </g>
      <g id="Group_303" data-name="Group 303" transform="translate(164.714 -50.355)">
        <path id="Path_211" data-name="Path 211" d="M0,0V18.089H-3.369l-.923-1.2A6.825,6.825,0,0,1-9.08,18.621c-4.043,0-6.739-2.376-6.739-8.122V0h5.32V10.6c0,2.128.994,3.193,2.59,3.193A2.656,2.656,0,0,0-5.32,10.925V0Z" fill="#fff"/>
      </g>
      <g id="Group_304" data-name="Group 304" transform="translate(167.87 -39.573)">
        <path id="Path_212" data-name="Path 212" d="M0,0V-3.476c0-4.788,3.05-7.838,8.087-7.838C12.875-11.314,16-8.335,16-3.8v.532H10.641v-.674A2.384,2.384,0,0,0,8.122-6.526c-1.844,0-2.8,1.064-2.8,3.086V-.035c0,2.021.923,3.086,2.8,3.086A2.385,2.385,0,0,0,10.641.461V-.213H16V.319c0,4.54-3.122,7.52-7.875,7.52C3.05,7.839,0,4.788,0,0" fill="#fff"/>
      </g>
      <g id="Group_305" data-name="Group 305" transform="translate(197.416 -37.055)">
        <path id="Path_213" data-name="Path 213" d="M0,0V4.788H-2.979c-4.434,0-6.739-2.411-6.739-7.2v-6.1H-12.13V-13.3h2.412v-5.072H-4.4V-13.3h4.15v4.788H-4.4V-3.37c0,2.2.922,3.37,2.66,3.37Z" fill="#fff"/>
      </g>
    </g>
    <g id="Group_307" data-name="Group 307" transform="translate(215.257 -47.802)">
      <path id="Path_215" data-name="Path 215" d="M0,0-10.038,12.663H0v2.873H-14.152V13.159L-4.044.461h-9.612V-2.376H0Z" fill="#fff"/>
    </g>
    <g id="Group_319" data-name="Group 319" clip-path="url(#clip-path)">
      <g id="Group_308" data-name="Group 308" transform="translate(218.768 -39.253)">
        <path id="Path_216" data-name="Path 216" d="M0,0V-3.973c0-4.611,2.625-7.413,7.626-7.413,5.037,0,7.661,2.8,7.661,7.413V0c0,4.611-2.624,7.448-7.626,7.448C2.625,7.448,0,4.611,0,0M12.272-.177V-3.8c0-3.157-1.383-4.718-4.611-4.718S3.015-6.952,3.015-3.8V-.177c0,3.156,1.383,4.752,4.611,4.752s4.646-1.6,4.646-4.752" fill="#fff"/>
      </g>
      <g id="Group_309" data-name="Group 309" transform="translate(253.669 -42.729)">
        <path id="Path_217" data-name="Path 217" d="M0,0V10.463H-2.979V.071c0-3.511-1.6-5.107-4.434-5.107-2.554,0-4.327,1.241-4.682,3.972V10.463H-15.11V-7.448h2.022l.532,1.951A7.055,7.055,0,0,1-6.81-7.91C-2.59-7.91,0-5.569,0,0" fill="#fff"/>
      </g>
      <g id="Group_310" data-name="Group 310" transform="translate(273 -43.935)">
        <path id="Path_218" data-name="Path 218" d="M0,0V3.618H-11.989v.816c0,3.333,1.49,5.072,4.647,5.072,2.589,0,4.256-1.171,4.256-3.37V5.923H-.071c0,3.973-2.838,6.172-7.2,6.172-5.143,0-7.7-3.086-7.7-7.7V.922c0-4.611,2.625-7.626,7.519-7.626C-2.873-6.7,0-4.008,0,0M-3.05,1.064V.035c0-2.766-1.49-4.149-4.292-4.149-3.228,0-4.647,1.773-4.647,5.036v.142Z" fill="#fff"/>
      </g>
      <g id="Group_311" data-name="Group 311" transform="translate(32.535 -17.385)">
        <path id="Path_219" data-name="Path 219" d="M0,0A14.863,14.863,0,0,1-4.017-.591,19.363,19.363,0,0,1-9.144-2.933a15.447,15.447,0,0,1-4.8-4.749,9.6,9.6,0,0,1-.556-1.05,7.248,7.248,0,0,1-.611-2.12,5.763,5.763,0,0,1-.022-1.12,4.725,4.725,0,0,1,1.3-2.889,7.212,7.212,0,0,1,5.355-1.906A17.508,17.508,0,0,1,.667-13.829c.105.068.208.136.312.206v-6.4a.982.982,0,0,0-.379-.6l-9.765-5.948a1.1,1.1,0,0,1-.492-1.2,1.092,1.092,0,0,1,1-.824l.216-.013a12.591,12.591,0,0,0,1.386-.156l.042-.007c.1-.016.193-.037.289-.056.067-.014.134-.025.2-.04a14.777,14.777,0,0,0,2.133-.616c4.277-1.591,7.316-5.026,6.5-7.351-.491-1.409-2.294-2.247-4.821-2.247a13.634,13.634,0,0,0-4.678.893c-.436.164-.864.345-1.274.54-.2.1-.4.2-.6.305a13.494,13.494,0,0,0-1.386.852,8.631,8.631,0,0,0-3.036,3.4,4.257,4.257,0,0,0-.275.818l-.01.048a2.954,2.954,0,0,0-.059.611v.046a.872.872,0,0,1,0,.088,1.093,1.093,0,0,1-1.091,1.093,1.119,1.119,0,0,1-.568-.156l-7.727-4.709a.453.453,0,0,0-.689.387V-8.413a2.833,2.833,0,0,0,1.3,2.264L.29,7.912a.453.453,0,0,0,.689-.387V-.042L.384-.006C.256,0,.129,0,0,0" fill="#fff"/>
      </g>
      <g id="Group_312" data-name="Group 312" transform="translate(32.535 -17.385)">
        <path id="Path_220" data-name="Path 220" d="M0,0A14.863,14.863,0,0,1-4.017-.591,19.363,19.363,0,0,1-9.144-2.933a15.447,15.447,0,0,1-4.8-4.749,9.6,9.6,0,0,1-.556-1.05,7.248,7.248,0,0,1-.611-2.12,5.763,5.763,0,0,1-.022-1.12,4.725,4.725,0,0,1,1.3-2.889,7.212,7.212,0,0,1,5.355-1.906A17.508,17.508,0,0,1,.667-13.829c.105.068.208.136.312.206v-6.4a.982.982,0,0,0-.379-.6l-9.765-5.948a1.1,1.1,0,0,1-.492-1.2,1.092,1.092,0,0,1,1-.824l.216-.013a12.591,12.591,0,0,0,1.386-.156l.042-.007c.1-.016.193-.037.289-.056.067-.014.134-.025.2-.04a14.777,14.777,0,0,0,2.133-.616c4.277-1.591,7.316-5.026,6.5-7.351-.491-1.409-2.294-2.247-4.821-2.247a13.634,13.634,0,0,0-4.678.893c-.436.164-.864.345-1.274.54-.2.1-.4.2-.6.305a13.494,13.494,0,0,0-1.386.852,8.631,8.631,0,0,0-3.036,3.4,4.257,4.257,0,0,0-.275.818l-.01.048a2.954,2.954,0,0,0-.059.611v.046a.872.872,0,0,1,0,.088,1.093,1.093,0,0,1-1.091,1.093,1.119,1.119,0,0,1-.568-.156l-7.727-4.709a.453.453,0,0,0-.689.387V-8.413a2.833,2.833,0,0,0,1.3,2.264L.29,7.912a.453.453,0,0,0,.689-.387V-.042L.384-.006C.256,0,.129,0,0,0Z" fill="none" stroke="#fff" stroke-width="0.202"/>
      </g>
      <g id="Group_313" data-name="Group 313" transform="translate(62.946 -51.432)">
        <path id="Path_221" data-name="Path 221" d="M0,0-6.51,3.432l-.053.03c.045.067.089.136.13.207l.251.43a14.2,14.2,0,0,1,1.526,7.059v.048c0,.107-.009.214-.014.322v.043l0,.057c0,.094-.009.189-.017.284,0,.043-.008.1-.013.151,0,.072-.008.151-.016.229s-.014.137-.02.2l-.008.1-.013.1c-.006.062-.014.125-.024.19l-.009.085-.008.077-.01.057c-.019.139-.038.277-.063.416a17.208,17.208,0,0,1-.664,2.71c-1.472,4.393-4.44,7.233-7.558,7.233-.079,0-.155,0-.233-.007a5.055,5.055,0,0,1-.861-.11c-2.061-.444-3.76-2.1-4.783-4.655a15.531,15.531,0,0,1-.851-7.594l.114-.692-5.715,3.078a.864.864,0,0,0-.371.533l-.1,10.68a1.233,1.233,0,0,1-.021.124,1.086,1.086,0,0,1-.708.9,1.116,1.116,0,0,1-.363.062,1.089,1.089,0,0,1-.844-.4l-.223-.265A12.6,12.6,0,0,0-29.141,24l-.036-.033-.034-.029c-.065-.059-.138-.112-.2-.17a14.871,14.871,0,0,0-1.665-1.256,14.438,14.438,0,0,0-7.532-2.451c-.1,0-.2,0-.3,0a4.518,4.518,0,0,0-3.172,1.113,2.355,2.355,0,0,0-.6,1.978c.2,1.733,1.679,3.761,3.955,5.423.237.176.487.347.736.51a14.475,14.475,0,0,0,7.531,2.449,7.9,7.9,0,0,0,1.045-.072,6.206,6.206,0,0,0,.76-.143,4.363,4.363,0,0,0,.976-.378l.1-.054a1.09,1.09,0,0,1,.528-.136,1.1,1.1,0,0,1,.56.153,1.1,1.1,0,0,1,.533.949l-.074,9.588a.453.453,0,0,0,.664.406L-.9,29.025A2.723,2.723,0,0,0,.482,26.8L.665.4A.453.453,0,0,0,0,0" fill="#fff"/>
      </g>
      <g id="Group_314" data-name="Group 314" transform="translate(62.946 -51.432)">
        <path id="Path_222" data-name="Path 222" d="M0,0-6.51,3.432l-.053.03c.045.067.089.136.13.207l.251.43a14.2,14.2,0,0,1,1.526,7.059v.048c0,.107-.009.214-.014.322v.043l0,.057c0,.094-.009.189-.017.284,0,.043-.008.1-.013.151,0,.072-.008.151-.016.229s-.014.137-.02.2l-.008.1-.013.1c-.006.062-.014.125-.024.19l-.009.085-.008.077-.01.057c-.019.139-.038.277-.063.416a17.208,17.208,0,0,1-.664,2.71c-1.472,4.393-4.44,7.233-7.558,7.233-.079,0-.155,0-.233-.007a5.055,5.055,0,0,1-.861-.11c-2.061-.444-3.76-2.1-4.783-4.655a15.531,15.531,0,0,1-.851-7.594l.114-.692-5.715,3.078a.864.864,0,0,0-.371.533l-.1,10.68a1.233,1.233,0,0,1-.021.124,1.086,1.086,0,0,1-.708.9,1.116,1.116,0,0,1-.363.062,1.089,1.089,0,0,1-.844-.4l-.223-.265A12.6,12.6,0,0,0-29.141,24l-.036-.033-.034-.029c-.065-.059-.138-.112-.2-.17a14.871,14.871,0,0,0-1.665-1.256,14.438,14.438,0,0,0-7.532-2.451c-.1,0-.2,0-.3,0a4.518,4.518,0,0,0-3.172,1.113,2.355,2.355,0,0,0-.6,1.978c.2,1.733,1.679,3.761,3.955,5.423.237.176.487.347.736.51a14.475,14.475,0,0,0,7.531,2.449,7.9,7.9,0,0,0,1.045-.072,6.206,6.206,0,0,0,.76-.143,4.363,4.363,0,0,0,.976-.378l.1-.054a1.09,1.09,0,0,1,.528-.136,1.1,1.1,0,0,1,.56.153,1.1,1.1,0,0,1,.533.949l-.074,9.588a.453.453,0,0,0,.664.406L-.9,29.025A2.723,2.723,0,0,0,.482,26.8L.665.4A.453.453,0,0,0,0,0Z" fill="none" stroke="#fff" stroke-width="0.202"/>
      </g>
      <g id="Group_315" data-name="Group 315" transform="translate(10.231 -55.755)">
        <path id="Path_223" data-name="Path 223" d="M0,0,6.377,3.9s.279-.517.314-.584a.463.463,0,0,1,.031-.051c.038-.07.086-.155.138-.24l.015-.022,0-.006a14.038,14.038,0,0,1,5.449-4.835.252.252,0,0,1,.057-.028c.082-.046.183-.1.28-.147l.067-.033.276-.136.135-.061.162-.077.057-.026.11-.048.067-.028c.065-.031.131-.059.2-.088s.129-.05.19-.077l.041-.017.058-.025.1-.038c.129-.052.259-.1.391-.151a17.111,17.111,0,0,1,5.864-1.11c3.806,0,6.475,1.585,7.368,4.132.683,1.965.246,4.153-1.481,6.282a16.045,16.045,0,0,1-6.82,4.658c-.089.033-.177.065-.264.094l-.574.149,5.622,3.316a.95.95,0,0,0,.432.085,1,1,0,0,0,.394-.071L35.485,9.454c.015-.007.031-.01.046-.017a1.107,1.107,0,0,1,.449-.1,1.093,1.093,0,0,1,.972,1.591l-.1.183a12.432,12.432,0,0,0-.629,1.465c-.063.178-.123.361-.179.544-.006.02-.013.04-.02.06a14.028,14.028,0,0,0-.443,1.91,12.8,12.8,0,0,0,.563,6.628c.681,1.717,1.719,2.805,2.921,3.066a2.763,2.763,0,0,0,.556.058c2.443,0,4.89-3.319,5.572-7.555.523-3.242-.052-6.4-1.437-8.237a4.842,4.842,0,0,0-.634-.7,3.64,3.64,0,0,0-.6-.44l-.113-.065a1.088,1.088,0,0,1-.546-.973,1.1,1.1,0,0,1,.6-.948l8.909-4.5a.453.453,0,0,0,.023-.8L27.472-13.248a2.815,2.815,0,0,0-1.42-.36,2.862,2.862,0,0,0-1.266.281L.032-.791A.453.453,0,0,0,0,0" fill="#fff"/>
      </g>
      <g id="Group_316" data-name="Group 316" transform="translate(10.231 -55.755)">
        <path id="Path_224" data-name="Path 224" d="M0,0,6.377,3.9s.279-.517.314-.584a.463.463,0,0,1,.031-.051c.038-.07.086-.155.138-.24l.015-.022,0-.006a14.038,14.038,0,0,1,5.449-4.835.252.252,0,0,1,.057-.028c.082-.046.183-.1.28-.147l.067-.033.276-.136.135-.061.162-.077.057-.026.11-.048.067-.028c.065-.031.131-.059.2-.088s.129-.05.19-.077l.041-.017.058-.025.1-.038c.129-.052.259-.1.391-.151a17.111,17.111,0,0,1,5.864-1.11c3.806,0,6.475,1.585,7.368,4.132.683,1.965.246,4.153-1.481,6.282a16.045,16.045,0,0,1-6.82,4.658c-.089.033-.177.065-.264.094l-.574.149,5.622,3.316a.95.95,0,0,0,.432.085,1,1,0,0,0,.394-.071L35.485,9.454c.015-.007.031-.01.046-.017a1.107,1.107,0,0,1,.449-.1,1.093,1.093,0,0,1,.972,1.591l-.1.183a12.432,12.432,0,0,0-.629,1.465c-.063.178-.123.361-.179.544-.006.02-.013.04-.02.06a14.028,14.028,0,0,0-.443,1.91,12.8,12.8,0,0,0,.563,6.628c.681,1.717,1.719,2.805,2.921,3.066a2.763,2.763,0,0,0,.556.058c2.443,0,4.89-3.319,5.572-7.555.523-3.242-.052-6.4-1.437-8.237a4.842,4.842,0,0,0-.634-.7,3.64,3.64,0,0,0-.6-.44l-.113-.065a1.088,1.088,0,0,1-.546-.973,1.1,1.1,0,0,1,.6-.948l8.909-4.5a.453.453,0,0,0,.023-.8L27.472-13.248a2.815,2.815,0,0,0-1.42-.36,2.862,2.862,0,0,0-1.266.281L.032-.791A.453.453,0,0,0,0,0Z" fill="none" stroke="#fff" stroke-width="0.202"/>
      </g>
      <g id="Group_317" data-name="Group 317" transform="translate(69.939 -59.428)">
        <path id="Path_225" data-name="Path 225" d="M0,0-31.2-17.993a4.761,4.761,0,0,0-2.4-.617,4.818,4.818,0,0,0-2.143.485L-67.6-2.027a4.082,4.082,0,0,0-2.241,3.643V36.384a4.8,4.8,0,0,0,2.226,3.9l30.293,18.452a4.083,4.083,0,0,0,4.051.112L-.638,41.735a4.654,4.654,0,0,0,2.4-3.879L2.008,3.547A4.081,4.081,0,0,0,0,0M-3.451,35.3A3.974,3.974,0,0,1-5.5,38.612L-33.363,53.219a3.485,3.485,0,0,1-3.458-.1L-62.688,37.368a4.1,4.1,0,0,1-1.9-3.326V4.355a3.486,3.486,0,0,1,1.913-3.111l27.2-13.746a4.119,4.119,0,0,1,1.83-.414,4.059,4.059,0,0,1,2.048.527L-4.956,2.975A3.485,3.485,0,0,1-3.241,6Z" fill="#fff"/>
      </g>
      <g id="Group_318" data-name="Group 318" transform="translate(69.939 -59.428)">
        <path id="Path_226" data-name="Path 226" d="M0,0-31.2-17.993a4.761,4.761,0,0,0-2.4-.617,4.818,4.818,0,0,0-2.143.485L-67.6-2.027a4.082,4.082,0,0,0-2.241,3.643V36.384a4.8,4.8,0,0,0,2.226,3.9l30.293,18.452a4.083,4.083,0,0,0,4.051.112L-.638,41.735a4.654,4.654,0,0,0,2.4-3.879L2.008,3.547A4.081,4.081,0,0,0,0,0ZM-3.451,35.3A3.974,3.974,0,0,1-5.5,38.612L-33.363,53.219a3.485,3.485,0,0,1-3.458-.1L-62.688,37.368a4.1,4.1,0,0,1-1.9-3.326V4.355a3.486,3.486,0,0,1,1.913-3.111l27.2-13.746a4.119,4.119,0,0,1,1.83-.414,4.059,4.059,0,0,1,2.048.527L-4.956,2.975A3.485,3.485,0,0,1-3.241,6Z" fill="none" stroke="#fff" stroke-width="0.202"/>
      </g>
    </g>
  </g>
</svg>
