<svg xmlns="http://www.w3.org/2000/svg" xmlns:xlink="http://www.w3.org/1999/xlink" width="632" height="162" viewBox="0 0 632 162">
  <defs>
    <clipPath id="clip-path">
      <path id="Path_65" data-name="Path 65" d="M0-3580.1H632v-162H0Z" fill="none"/>
    </clipPath>
    <clipPath id="clip-path-2">
      <rect id="Rectangle_17" data-name="Rectangle 17" width="65535" height="65535" transform="translate(-32768 -32767)" fill="none"/>
    </clipPath>
    <clipPath id="clip-path-3">
      <path id="Path_51" data-name="Path 51" d="M265.966-3691.544l-46.5-26.834a6.922,6.922,0,0,0-3.584-.922,6.8,6.8,0,0,0-3.175.717l-47.472,24.018a6.047,6.047,0,0,0-3.328,5.428v51.824a7.172,7.172,0,0,0,3.328,5.787l45.167,27.5a6.064,6.064,0,0,0,6.043.154l48.649-25.5a6.87,6.87,0,0,0,3.585-5.786l.358-51.159a6.249,6.249,0,0,0-3.072-5.223" fill="none"/>
    </clipPath>
    <linearGradient id="linear-gradient" x1="0.084" y1="0.022" x2="0.14" y2="0.022" gradientUnits="objectBoundingBox">
      <stop offset="0" stop-color="#fff"/>
      <stop offset="0.1" stop-color="#fff"/>
      <stop offset="0.2" stop-color="#fff"/>
      <stop offset="0.3" stop-color="#fff"/>
      <stop offset="0.4" stop-color="#fff"/>
      <stop offset="0.5" stop-color="#fff"/>
      <stop offset="0.6" stop-color="#fff"/>
      <stop offset="0.7" stop-color="#fff"/>
      <stop offset="0.8" stop-color="#fff"/>
      <stop offset="0.9" stop-color="#fff"/>
      <stop offset="1" stop-color="#fff"/>
    </linearGradient>
    <linearGradient id="linear-gradient-2" x1="0.084" y1="0.022" x2="0.14" y2="0.022" gradientUnits="objectBoundingBox">
      <stop offset="0" stop-color="#e6216d"/>
      <stop offset="0.1" stop-color="#e4216d"/>
      <stop offset="0.2" stop-color="#df216d"/>
      <stop offset="0.3" stop-color="#d9216f"/>
      <stop offset="0.4" stop-color="#d12170"/>
      <stop offset="0.5" stop-color="#c82172"/>
      <stop offset="0.6" stop-color="#bc2174"/>
      <stop offset="0.7" stop-color="#af2176"/>
      <stop offset="0.8" stop-color="#a02178"/>
      <stop offset="0.9" stop-color="#90217a"/>
      <stop offset="1" stop-color="#7e217c"/>
    </linearGradient>
  </defs>
  <g id="Group_104" data-name="Group 104" transform="translate(0 3742.1)" clip-path="url(#clip-path)">
    <g id="Group_103" data-name="Group 103" style="isolation: isolate">
      <g id="Group_102" data-name="Group 102">
        <g id="Group_101" data-name="Group 101" clip-path="url(#clip-path-2)">
          <g id="Group_87" data-name="Group 87" clip-path="url(#clip-path-3)">
            <g id="Group_85" data-name="Group 85">
              <g id="Group_84" data-name="Group 84" clip-path="url(#clip-path-2)">
                <g id="Group_83" data-name="Group 83" transform="translate(161.85 -3661.216)">
                  <path id="Path_49" data-name="Path 49" d="M-161.85-80.884h1920v3742.1h-1920Z" fill="url(#linear-gradient)"/>
                </g>
              </g>
            </g>
            <g id="Group_86" data-name="Group 86" transform="translate(161.85 -3661.216)">
              <path id="Path_50" data-name="Path 50" d="M-161.85-80.884h1920v3742.1h-1920Z" fill="url(#linear-gradient-2)"/>
            </g>
          </g>
          <g id="Group_88" data-name="Group 88" transform="translate(301.812 -3667.424)">
            <path id="Path_52" data-name="Path 52" d="M0,0V5.735c0,8.04-4.046,11.42-10.549,11.42A12.043,12.043,0,0,1-16.8,15.619v12.9h-7.937V-10.6h5.223l1.28,1.741a11.329,11.329,0,0,1,7.682-2.561C-4.1-11.42,0-8.04,0,0M-7.937.2c0-2.97-1.69-4.455-4.4-4.455s-4.507,1.433-4.507,4.3V5.633c0,2.868,1.895,4.3,4.507,4.3,2.714,0,4.4-1.486,4.4-4.456Z" fill="#2a2d67"/>
          </g>
          <g id="Group_89" data-name="Group 89" transform="translate(322.347 -3678.588)">
            <path id="Path_53" data-name="Path 53" d="M0,0V6.862A10.425,10.425,0,0,0-2.765,6.4c-2.714,0-5.172,1.639-5.172,5.377V27.5h-7.938V.512h5.223l1.537,2.151A12.41,12.41,0,0,1-1.28-.1c.461.052.87.052,1.28.1" fill="#2a2d67"/>
          </g>
          <g id="Group_90" data-name="Group 90" transform="translate(325.113 -3661.945)">
            <path id="Path_54" data-name="Path 54" d="M0,0V-5.223C0-12.342,4.558-16.9,12.29-16.9c7.835,0,12.393,4.557,12.393,11.676V-.051c0,7.118-4.558,11.676-12.341,11.676C4.558,11.676,0,7.118,0,0M16.694-.051v-5.07c0-3.021-1.434-4.609-4.4-4.609s-4.4,1.588-4.4,4.609v5.07c0,3.021,1.383,4.609,4.353,4.609,3.021-.052,4.455-1.639,4.455-4.609" fill="#2a2d67"/>
          </g>
          <g id="Group_91" data-name="Group 91" transform="translate(378.371 -3691.8)">
            <path id="Path_55" data-name="Path 55" d="M0,0V40.712H-5.223L-6.5,38.919a11.1,11.1,0,0,1-7.681,2.612c-6.555,0-10.652-3.38-10.652-11.42V24.376c0-8.04,4.1-11.42,10.652-11.42a12.045,12.045,0,0,1,6.248,1.536V0ZM-7.937,30.06V24.478c0-2.868-1.844-4.3-4.558-4.3-2.663,0-4.4,1.485-4.4,4.455v5.274c0,2.97,1.741,4.456,4.4,4.456,2.663-.052,4.558-1.486,4.558-4.3" fill="#2a2d67"/>
          </g>
          <g id="Group_92" data-name="Group 92" transform="translate(407.202 -3678.025)">
            <path id="Path_56" data-name="Path 56" d="M0,0V26.987H-5.018L-6.4,25.195a10.207,10.207,0,0,1-7.118,2.612c-6.043,0-10.037-3.534-10.037-12.086V.051h7.937V15.875c0,3.175,1.485,4.762,3.841,4.762a3.959,3.959,0,0,0,3.841-4.3V.051H0Z" fill="#2a2d67"/>
          </g>
          <g id="Group_93" data-name="Group 93" transform="translate(411.913 -3661.945)">
            <path id="Path_57" data-name="Path 57" d="M0,0V-5.223C0-12.342,4.558-16.9,12.034-16.9c7.118,0,11.778,4.455,11.778,11.215v.768H15.824V-5.94a3.55,3.55,0,0,0-3.738-3.841c-2.766,0-4.2,1.587-4.2,4.609V-.1c0,3.022,1.383,4.609,4.2,4.609A3.549,3.549,0,0,0,15.824.666V-.359h7.988V.41c0,6.759-4.66,11.215-11.727,11.215C4.558,11.676,0,7.118,0,0" fill="#2a2d67"/>
          </g>
          <g id="Group_94" data-name="Group 94" transform="translate(455.953 -3658.207)">
            <path id="Path_58" data-name="Path 58" d="M0,0V7.118H-4.455c-6.606,0-10.037-3.585-10.037-10.754v-9.115h-3.585v-7.118h3.585V-27.4h7.937v7.579h6.2V-12.7h-6.2v7.681C-6.555-1.741-5.172,0-2.612,0Z" fill="#2a2d67"/>
          </g>
          <g id="Group_95" data-name="Group 95" transform="translate(482.582 -3674.235)">
            <path id="Path_59" data-name="Path 59" d="M0,0-14.953,18.9H0v4.3H-21.1V19.664L-6.043.717H-20.381v-4.25H-.051V0Z" fill="#2a2d67"/>
          </g>
          <g id="Group_96" data-name="Group 96" transform="translate(487.806 -3661.484)">
            <path id="Path_60" data-name="Path 60" d="M0,0V-5.94C0-12.8,3.892-17,11.369-17,18.9-17,22.788-12.8,22.788-5.94V0c0,6.862-3.892,11.113-11.368,11.113C3.892,11.113,0,6.862,0,0M18.282-.256V-5.684c0-4.712-2.049-7.016-6.862-7.016S4.506-10.4,4.506-5.684V-.307c0,4.711,2.049,7.067,6.863,7.067,4.813.051,6.913-2.305,6.913-7.016" fill="#2a2d67"/>
          </g>
          <g id="Group_97" data-name="Group 97" transform="translate(539.834 -3666.656)">
            <path id="Path_61" data-name="Path 61" d="M0,0V15.619H-4.455V.1c0-5.224-2.356-7.631-6.606-7.631-3.79,0-6.453,1.844-6.965,5.941V15.619h-4.506v-26.68h3.021l.768,2.919c1.946-2.407,4.968-3.585,8.552-3.585C-3.892-11.829,0-8.3,0,0" fill="#2a2d67"/>
          </g>
          <g id="Group_98" data-name="Group 98" transform="translate(568.614 -3668.448)">
            <path id="Path_62" data-name="Path 62" d="M0,0V5.377H-17.872V6.606c0,4.967,2.2,7.579,6.913,7.579,3.841,0,6.35-1.741,6.35-5.018V8.859H-.1c0,5.941-4.251,9.218-10.754,9.218-7.682,0-11.471-4.609-11.471-11.471V1.434c0-6.862,3.892-11.369,11.215-11.369C-4.25-10.037,0-5.991,0,0M-4.506,1.587V.051c0-4.148-2.2-6.2-6.4-6.2-4.813,0-6.913,2.663-6.913,7.528v.2Z" fill="#2a2d67"/>
          </g>
          <g id="Group_99" data-name="Group 99" transform="translate(258.54 -3687.14)">
            <path id="Path_63" data-name="Path 63" d="M0,0-39.687-22.891a6.085,6.085,0,0,0-3.073-.768,5.991,5.991,0,0,0-2.714.615L-86.032-2.56A5.2,5.2,0,0,0-88.9,2.1V46.345a6.206,6.206,0,0,0,2.817,4.967l38.612,23.454a5.186,5.186,0,0,0,5.172.154L-.768,53.156A6,6,0,0,0,2.3,48.24L2.612,4.558A5.245,5.245,0,0,0,0,0M-81.526-.1-44.6-18.794a3.977,3.977,0,0,1,1.9-.409,4.538,4.538,0,0,1,2.1.512L-4.916,2a.659.659,0,0,1-.051,1.178L-18.282,9.884a1.619,1.619,0,0,0-.87,1.433,1.576,1.576,0,0,0,.819,1.434l.154.1a3.543,3.543,0,0,1,.87.666,5.7,5.7,0,0,1,.922,1.024c2.048,2.765,2.919,7.425,2.151,12.29-1.024,6.3-4.66,11.266-8.3,11.266a4.507,4.507,0,0,1-.82-.1c-1.792-.41-3.328-2-4.352-4.558a18.528,18.528,0,0,1-.82-9.884,18.014,18.014,0,0,1,.666-2.867c0-.052,0-.052.051-.1.1-.256.154-.563.256-.819a21.981,21.981,0,0,1,.922-2.2l.154-.256a1.644,1.644,0,0,0-.308-1.9,1.623,1.623,0,0,0-1.177-.461,1.412,1.412,0,0,0-.666.154h-.051l-15.568,7.835a1.376,1.376,0,0,1-.563.1,1.783,1.783,0,0,1-.666-.1l-8.4-4.967.87-.2c.154-.051.256-.1.41-.154A23.942,23.942,0,0,0-42.4,10.652c2.561-3.175,3.227-6.453,2.2-9.372-1.331-3.789-5.325-6.145-10.958-6.145a25.646,25.646,0,0,0-8.757,1.639c-.2.051-.41.153-.564.205l-.153.051-.1.051h-.051c-.1.051-.205.051-.307.1l-.307.153-.1.051-.153.052-.1.051-.256.1-.205.1a1.507,1.507,0,0,0-.409.2l-.1.051a3.046,3.046,0,0,0-.409.2c-.052,0-.052,0-.1.052a20.977,20.977,0,0,0-8.142,7.22v.051a1.281,1.281,0,0,0-.205.359.05.05,0,0,1-.051.051c-.051.1-.461.871-.461.871L-81.628.922a.556.556,0,0,1,.1-1.024m34.618,59.249V69.44A.661.661,0,0,1-47.932,70L-82.345,49.059a4.192,4.192,0,0,1-1.946-3.38V6.248a.661.661,0,0,1,1.024-.564L-71.745,12.7a1.725,1.725,0,0,0,.871.256,1.618,1.618,0,0,0,1.639-1.639v-.2a2.845,2.845,0,0,1,.1-.922V10.14a11.28,11.28,0,0,1,.41-1.229,13.23,13.23,0,0,1,4.506-5.07c.666-.461,1.332-.871,2.049-1.28.307-.154.614-.308.87-.461.615-.308,1.229-.564,1.9-.82A20.428,20.428,0,0,1-52.439-.051c3.79,0,6.453,1.229,7.17,3.329,1.229,3.482-3.329,8.6-9.679,10.958a17.278,17.278,0,0,1-3.175.922c-.1,0-.2.051-.307.051-.154.051-.307.051-.41.1h-.051c-.717.1-1.383.2-2.048.256h-.308A1.584,1.584,0,0,0-62.732,16.8a1.627,1.627,0,0,0,.717,1.792l14.544,8.859a1.482,1.482,0,0,1,.563.922V37.9l-.461-.307a26.263,26.263,0,0,0-13.622-4.4c-3.431,0-6.2.973-7.988,2.816a7.1,7.1,0,0,0-1.946,4.3,6.26,6.26,0,0,0,.051,1.69,9.659,9.659,0,0,0,.922,3.175c.256.512.512,1.024.819,1.587a22.523,22.523,0,0,0,7.169,7.067A27.677,27.677,0,0,0-54.333,57.3a22.909,22.909,0,0,0,5.991.87h.563l.871-.051ZM-2.3,47.42a4.091,4.091,0,0,1-2.049,3.329L-40.814,69.9a.661.661,0,0,1-.973-.614l.1-14.288a1.7,1.7,0,0,0-.819-1.434,1.626,1.626,0,0,0-.819-.2,1.336,1.336,0,0,0-.768.2l-.154.1a9.338,9.338,0,0,1-1.434.563,7.359,7.359,0,0,1-1.127.205c-.512.051-1.024.1-1.536.1A21.647,21.647,0,0,1-59.557,50.9c-.358-.256-.768-.512-1.075-.768-3.38-2.458-5.582-5.479-5.889-8.091a3.531,3.531,0,0,1,.87-2.97,6.606,6.606,0,0,1,4.712-1.639h.46A21.65,21.65,0,0,1-49.264,41.07a17.48,17.48,0,0,1,2.458,1.9c.1.1.2.154.308.256l.051.051.051.051c.615.564,1.127,1.127,1.639,1.69l.307.41a1.71,1.71,0,0,0,1.28.615,2.193,2.193,0,0,0,.564-.1A1.7,1.7,0,0,0-41.531,44.6c0-.052.051-.1.051-.205l.154-15.926a1.212,1.212,0,0,1,.563-.82l8.5-4.609-.154,1.025a23.316,23.316,0,0,0,1.281,11.317c1.536,3.79,4.045,6.3,7.118,6.913a5.125,5.125,0,0,0,1.28.154h.358c4.66,0,9.065-4.251,11.267-10.8a21.289,21.289,0,0,0,.973-4.046c.051-.2.051-.41.1-.614V26.68c0-.1.051-.2.051-.307v-.307a.649.649,0,0,1,.051-.307v-.564a.981.981,0,0,1,.052-.409V24.12a21.184,21.184,0,0,0-2.254-10.5l-.358-.666a1.075,1.075,0,0,0-.2-.307l.1-.051,9.679-5.121a.661.661,0,0,1,.973.614Z" fill="#fff"/>
          </g>
          <g id="Group_100" data-name="Group 100" transform="translate(258.54 -3687.14)">
            <path id="Path_64" data-name="Path 64" d="M0,0-39.687-22.891a6.085,6.085,0,0,0-3.073-.768,5.991,5.991,0,0,0-2.714.615L-86.032-2.56A5.2,5.2,0,0,0-88.9,2.1V46.345a6.206,6.206,0,0,0,2.817,4.967l38.612,23.454a5.186,5.186,0,0,0,5.172.154L-.768,53.156A6,6,0,0,0,2.3,48.24L2.612,4.558A5.245,5.245,0,0,0,0,0ZM-81.526-.1-44.6-18.794a3.977,3.977,0,0,1,1.9-.409,4.538,4.538,0,0,1,2.1.512L-4.916,2a.659.659,0,0,1-.051,1.178L-18.282,9.884a1.619,1.619,0,0,0-.87,1.433,1.576,1.576,0,0,0,.819,1.434l.154.1a3.543,3.543,0,0,1,.87.666,5.7,5.7,0,0,1,.922,1.024c2.048,2.765,2.919,7.425,2.151,12.29-1.024,6.3-4.66,11.266-8.3,11.266a4.507,4.507,0,0,1-.82-.1c-1.792-.41-3.328-2-4.352-4.558a18.528,18.528,0,0,1-.82-9.884,18.014,18.014,0,0,1,.666-2.867c0-.052,0-.052.051-.1.1-.256.154-.563.256-.819a21.981,21.981,0,0,1,.922-2.2l.154-.256a1.644,1.644,0,0,0-.308-1.9,1.623,1.623,0,0,0-1.177-.461,1.412,1.412,0,0,0-.666.154h-.051l-15.568,7.835a1.376,1.376,0,0,1-.563.1,1.783,1.783,0,0,1-.666-.1l-8.4-4.967.87-.2c.154-.051.256-.1.41-.154A23.942,23.942,0,0,0-42.4,10.652c2.561-3.175,3.227-6.453,2.2-9.372-1.331-3.789-5.325-6.145-10.958-6.145a25.646,25.646,0,0,0-8.757,1.639c-.2.051-.41.153-.564.205l-.153.051-.1.051h-.051c-.1.051-.205.051-.307.1l-.307.153-.1.051-.153.052-.1.051-.256.1-.205.1a1.507,1.507,0,0,0-.409.2l-.1.051a3.046,3.046,0,0,0-.409.2c-.052,0-.052,0-.1.052a20.977,20.977,0,0,0-8.142,7.22v.051a1.281,1.281,0,0,0-.205.359.05.05,0,0,1-.051.051c-.051.1-.461.871-.461.871L-81.628.922A.556.556,0,0,1-81.526-.1Zm34.618,59.249V69.44A.661.661,0,0,1-47.932,70L-82.345,49.059a4.192,4.192,0,0,1-1.946-3.38V6.248a.661.661,0,0,1,1.024-.564L-71.745,12.7a1.725,1.725,0,0,0,.871.256,1.618,1.618,0,0,0,1.639-1.639v-.2a2.845,2.845,0,0,1,.1-.922V10.14a11.28,11.28,0,0,1,.41-1.229,13.23,13.23,0,0,1,4.506-5.07c.666-.461,1.332-.871,2.049-1.28.307-.154.614-.308.87-.461.615-.308,1.229-.564,1.9-.82A20.428,20.428,0,0,1-52.439-.051c3.79,0,6.453,1.229,7.17,3.329,1.229,3.482-3.329,8.6-9.679,10.958a17.278,17.278,0,0,1-3.175.922c-.1,0-.2.051-.307.051-.154.051-.307.051-.41.1h-.051c-.717.1-1.383.2-2.048.256h-.308A1.584,1.584,0,0,0-62.732,16.8a1.627,1.627,0,0,0,.717,1.792l14.544,8.859a1.482,1.482,0,0,1,.563.922V37.9l-.461-.307a26.263,26.263,0,0,0-13.622-4.4c-3.431,0-6.2.973-7.988,2.816a7.1,7.1,0,0,0-1.946,4.3,6.26,6.26,0,0,0,.051,1.69,9.659,9.659,0,0,0,.922,3.175c.256.512.512,1.024.819,1.587a22.523,22.523,0,0,0,7.169,7.067A27.677,27.677,0,0,0-54.333,57.3a22.909,22.909,0,0,0,5.991.87h.563l.871-.051ZM-2.3,47.42a4.091,4.091,0,0,1-2.049,3.329L-40.814,69.9a.661.661,0,0,1-.973-.614l.1-14.288a1.7,1.7,0,0,0-.819-1.434,1.626,1.626,0,0,0-.819-.2,1.336,1.336,0,0,0-.768.2l-.154.1a9.338,9.338,0,0,1-1.434.563,7.359,7.359,0,0,1-1.127.205c-.512.051-1.024.1-1.536.1A21.647,21.647,0,0,1-59.557,50.9c-.358-.256-.768-.512-1.075-.768-3.38-2.458-5.582-5.479-5.889-8.091a3.531,3.531,0,0,1,.87-2.97,6.606,6.606,0,0,1,4.712-1.639h.46A21.65,21.65,0,0,1-49.264,41.07a17.48,17.48,0,0,1,2.458,1.9c.1.1.2.154.308.256l.051.051.051.051c.615.564,1.127,1.127,1.639,1.69l.307.41a1.71,1.71,0,0,0,1.28.615,2.193,2.193,0,0,0,.564-.1A1.7,1.7,0,0,0-41.531,44.6c0-.052.051-.1.051-.205l.154-15.926a1.212,1.212,0,0,1,.563-.82l8.5-4.609-.154,1.025a23.316,23.316,0,0,0,1.281,11.317c1.536,3.79,4.045,6.3,7.118,6.913a5.125,5.125,0,0,0,1.28.154h.358c4.66,0,9.065-4.251,11.267-10.8a21.289,21.289,0,0,0,.973-4.046c.051-.2.051-.41.1-.614V26.68c0-.1.051-.2.051-.307v-.307a.649.649,0,0,1,.051-.307v-.564a.981.981,0,0,1,.052-.409V24.12a21.184,21.184,0,0,0-2.254-10.5l-.358-.666a1.075,1.075,0,0,0-.2-.307l.1-.051,9.679-5.121a.661.661,0,0,1,.973.614Z" fill="none" stroke="#fff" stroke-miterlimit="10" stroke-width="0.301"/>
          </g>
        </g>
      </g>
    </g>
  </g>
</svg>
