<svg xmlns="http://www.w3.org/2000/svg" xmlns:xlink="http://www.w3.org/1999/xlink" width="398" height="250.379" viewBox="0 0 398 250.379">
  <defs>
    <clipPath id="clip-path">
      <path id="Path_48" data-name="Path 48" d="M1370.771-2178.536H1759v-107.707H1370.771Z" fill="none"/>
    </clipPath>
    <clipPath id="clip-path-2">
      <rect id="Rectangle_15" data-name="Rectangle 15" width="65535" height="65535" transform="translate(-32768 -32767)" fill="none"/>
    </clipPath>
    <clipPath id="clip-path-3">
      <path id="Path_44" data-name="Path 44" d="M1603.491-2259.014l-34.854-20.089a7.007,7.007,0,0,0-7.5,0l-34.853,20.089a7.629,7.629,0,0,0-3.873,6.535v40.179a7.631,7.631,0,0,0,3.873,6.535l34.853,20.089a7.007,7.007,0,0,0,7.5,0l34.854-20.089a7.632,7.632,0,0,0,3.872-6.535v-40.179a8.854,8.854,0,0,0-3.872-6.535m-38.484,53.975a27.322,27.322,0,0,1-27.351-27.35,27.169,27.169,0,0,1,27.351-27.351,27.169,27.169,0,0,1,27.35,27.351,27.322,27.322,0,0,1-27.35,27.35" fill="none"/>
    </clipPath>
    <linearGradient id="linear-gradient" x1="0.793" y1="0.403" x2="0.837" y2="0.403" gradientUnits="objectBoundingBox">
      <stop offset="0" stop-color="#fff"/>
      <stop offset="0.1" stop-color="#fff"/>
      <stop offset="0.2" stop-color="#fff"/>
      <stop offset="0.3" stop-color="#fff"/>
      <stop offset="0.4" stop-color="#fff"/>
      <stop offset="0.5" stop-color="#fff"/>
      <stop offset="0.6" stop-color="#fff"/>
      <stop offset="0.7" stop-color="#fff"/>
      <stop offset="0.8" stop-color="#fff"/>
      <stop offset="0.9" stop-color="#fff"/>
      <stop offset="1" stop-color="#fff"/>
    </linearGradient>
    <linearGradient id="linear-gradient-2" x1="0.793" y1="0.403" x2="0.837" y2="0.403" gradientUnits="objectBoundingBox">
      <stop offset="0" stop-color="#e6216d"/>
      <stop offset="0.1" stop-color="#e4216d"/>
      <stop offset="0.2" stop-color="#df216d"/>
      <stop offset="0.3" stop-color="#d9216f"/>
      <stop offset="0.4" stop-color="#d12170"/>
      <stop offset="0.5" stop-color="#c82172"/>
      <stop offset="0.6" stop-color="#bc2174"/>
      <stop offset="0.7" stop-color="#af2176"/>
      <stop offset="0.8" stop-color="#a02178"/>
      <stop offset="0.9" stop-color="#90217a"/>
      <stop offset="1" stop-color="#7e217c"/>
    </linearGradient>
    <clipPath id="clip-path-5">
      <path id="Path_47" data-name="Path 47" d="M1580.739-2233.842l-20.815-13.554a2.618,2.618,0,0,0-4.115,2.178v27.109a2.583,2.583,0,0,0,4.115,2.178l20.815-13.554a2.5,2.5,0,0,0,0-4.357" fill="none"/>
    </clipPath>
    <linearGradient id="linear-gradient-3" x1="0.81" y1="0.404" x2="0.824" y2="0.404" xlink:href="#linear-gradient"/>
    <linearGradient id="linear-gradient-4" x1="0.81" y1="0.404" x2="0.824" y2="0.404" xlink:href="#linear-gradient-2"/>
    <clipPath id="clip-path-7">
      <path id="Path_147" data-name="Path 147" d="M1698.253-2155.2a32,32,0,0,0-32,32h0a32,32,0,0,0,32,32h2.229a32,32,0,0,0,32-32h0a32,32,0,0,0-32-32h-2.229Z" fill="none"/>
    </clipPath>
    <linearGradient id="linear-gradient-5" x1="0.868" y1="0.441" x2="0.902" y2="0.441" gradientUnits="objectBoundingBox">
      <stop offset="0" stop-color="#fe3c7a"/>
      <stop offset="0.1" stop-color="#fb3b7a"/>
      <stop offset="0.2" stop-color="#f43a7c"/>
      <stop offset="0.3" stop-color="#ea387d"/>
      <stop offset="0.4" stop-color="#de367f"/>
      <stop offset="0.5" stop-color="#d03481"/>
      <stop offset="0.6" stop-color="#bf3283"/>
      <stop offset="0.7" stop-color="#ad2f86"/>
      <stop offset="0.8" stop-color="#982c88"/>
      <stop offset="0.9" stop-color="#822a8b"/>
      <stop offset="1" stop-color="#6a278d"/>
    </linearGradient>
  </defs>
  <g id="Group_321" data-name="Group 321" transform="translate(-1382 -1400.521)">
    <g id="Group_67" data-name="Group 67" transform="translate(1402 1400.521)">
      <path id="Path_40" data-name="Path 40" d="M.5,0A20.256,20.256,0,0,0-20,20V198.379a20.257,20.257,0,0,0,20.5,20H357.5a20.257,20.257,0,0,0,20.5-20V20A20.256,20.256,0,0,0,357.5,0Z" transform="translate(0)" fill="#e2e2e3"/>
    </g>
    <g id="Group_82" data-name="Group 82" transform="translate(15 3742.1)" clip-path="url(#clip-path)">
      <g id="Group_81" data-name="Group 81" style="isolation: isolate">
        <g id="Group_80" data-name="Group 80">
          <g id="Group_79" data-name="Group 79" clip-path="url(#clip-path-2)">
            <g id="Group_73" data-name="Group 73" clip-path="url(#clip-path-3)">
              <g id="Group_71" data-name="Group 71">
                <g id="Group_70" data-name="Group 70" clip-path="url(#clip-path-2)">
                  <g id="Group_69" data-name="Group 69" transform="translate(1522.366 -2232.376)">
                    <path id="Path_42" data-name="Path 42" d="M-1522.366-1509.724h1920v3742.1h-1920Z" fill="url(#linear-gradient)"/>
                  </g>
                </g>
              </g>
              <g id="Group_72" data-name="Group 72" transform="translate(1522.366 -2232.376)">
                <path id="Path_43" data-name="Path 43" d="M-1522.366-1509.724h1920v3742.1h-1920Z" fill="url(#linear-gradient-2)"/>
              </g>
            </g>
            <g id="Group_78" data-name="Group 78" clip-path="url(#clip-path-5)">
              <g id="Group_76" data-name="Group 76">
                <g id="Group_75" data-name="Group 75" clip-path="url(#clip-path-2)">
                  <g id="Group_74" data-name="Group 74" transform="translate(1556.043 -2231.615)">
                    <path id="Path_45" data-name="Path 45" d="M-1556.043-1510.485h1920v3742.1h-1920Z" fill="url(#linear-gradient-3)"/>
                  </g>
                </g>
              </g>
              <g id="Group_77" data-name="Group 77" transform="translate(1556.043 -2231.615)">
                <path id="Path_46" data-name="Path 46" d="M-1556.043-1510.485h1920v3742.1h-1920Z" fill="url(#linear-gradient-4)"/>
              </g>
            </g>
          </g>
        </g>
      </g>
    </g>
    <g id="Group_126" data-name="Group 126" transform="translate(1444.289 1586.9)">
      <path id="Path_87" data-name="Path 87" d="M0,0A32,32,0,0,0,0,64H192.965a32,32,0,0,0,0-64Z" fill="#142a70"/>
    </g>
    <g id="Group" transform="translate(15 3742.1)">
      <text id="KOFFIEMACHINES" transform="translate(1459.018 -2117.04)" fill="#fff" font-size="16" font-family="SegoeUI-Bold, Segoe UI" font-weight="700" letter-spacing="0.03em"><tspan x="0" y="0">KOFFIEMACHINES</tspan></text>
    </g>
    <g id="Group_207" data-name="Group 207" transform="translate(15 3742.1)" clip-path="url(#clip-path-7)">
      <g id="Group_206" data-name="Group 206" transform="translate(1666.253 -2091.2)">
        <path id="Path_146" data-name="Path 146" d="M-1666.253-1650.9h1920V2091.2h-1920Z" fill="url(#linear-gradient-5)"/>
      </g>
    </g>
    <g id="Group_208" data-name="Group 208" transform="translate(1723.239 1624.44)">
      <path id="Path_148" data-name="Path 148" d="M0,0A8.272,8.272,0,0,0-5.175,1.809l-8.871-5.545a8.348,8.348,0,0,0,0-3.608l8.871-5.544A8.272,8.272,0,0,0,0-11.079a8.31,8.31,0,0,0,8.309-8.31A8.309,8.309,0,0,0,0-27.7a8.309,8.309,0,0,0-8.309,8.309,8.311,8.311,0,0,0,.2,1.8l-8.871,5.544a8.279,8.279,0,0,0-5.175-1.808,8.309,8.309,0,0,0-8.31,8.309,8.309,8.309,0,0,0,8.31,8.31A8.274,8.274,0,0,0-16.983.961l8.871,5.544a8.24,8.24,0,0,0-.2,1.8A8.31,8.31,0,0,0,0,16.619a8.31,8.31,0,0,0,8.309-8.31A8.309,8.309,0,0,0,0,0" fill="#fff"/>
    </g>
  </g>
</svg>
