<svg xmlns="http://www.w3.org/2000/svg" xmlns:xlink="http://www.w3.org/1999/xlink" width="66.229" height="64" viewBox="0 0 66.229 64">
  <defs>
    <clipPath id="clip-path">
      <path id="Path_147" data-name="Path 147" d="M1698.253-2155.2a32,32,0,0,0-32,32h0a32,32,0,0,0,32,32h2.229a32,32,0,0,0,32-32h0a32,32,0,0,0-32-32h-2.229Z" fill="none"/>
    </clipPath>
    <linearGradient id="linear-gradient" x1="0.868" y1="0.441" x2="0.902" y2="0.441" gradientUnits="objectBoundingBox">
      <stop offset="0" stop-color="#fe3c7a"/>
      <stop offset="0.1" stop-color="#fb3b7a"/>
      <stop offset="0.2" stop-color="#f43a7c"/>
      <stop offset="0.3" stop-color="#ea387d"/>
      <stop offset="0.4" stop-color="#de367f"/>
      <stop offset="0.5" stop-color="#d03481"/>
      <stop offset="0.6" stop-color="#bf3283"/>
      <stop offset="0.7" stop-color="#ad2f86"/>
      <stop offset="0.8" stop-color="#982c88"/>
      <stop offset="0.9" stop-color="#822a8b"/>
      <stop offset="1" stop-color="#6a278d"/>
    </linearGradient>
  </defs>
  <g id="Group_322" data-name="Group 322" transform="translate(-1681.253 -1586.9)">
    <g id="Group_207" data-name="Group 207" transform="translate(15 3742.1)" clip-path="url(#clip-path)">
      <g id="Group_206" data-name="Group 206" transform="translate(1666.253 -2091.2)">
        <path id="Path_146" data-name="Path 146" d="M-1666.253-1650.9h1920V2091.2h-1920Z" fill="url(#linear-gradient)"/>
      </g>
    </g>
    <g id="Group_208" data-name="Group 208" transform="translate(1723.239 1624.44)">
      <path id="Path_148" data-name="Path 148" d="M0,0A8.272,8.272,0,0,0-5.175,1.809l-8.871-5.545a8.348,8.348,0,0,0,0-3.608l8.871-5.544A8.272,8.272,0,0,0,0-11.079a8.31,8.31,0,0,0,8.309-8.31A8.309,8.309,0,0,0,0-27.7a8.309,8.309,0,0,0-8.309,8.309,8.311,8.311,0,0,0,.2,1.8l-8.871,5.544a8.279,8.279,0,0,0-5.175-1.808,8.309,8.309,0,0,0-8.31,8.309,8.309,8.309,0,0,0,8.31,8.31A8.274,8.274,0,0,0-16.983.961l8.871,5.544a8.24,8.24,0,0,0-.2,1.8A8.31,8.31,0,0,0,0,16.619a8.31,8.31,0,0,0,8.309-8.31A8.309,8.309,0,0,0,0,0" fill="#fff"/>
    </g>
  </g>
</svg>
