<svg id="Layer_1" data-name="Layer 1" xmlns="http://www.w3.org/2000/svg" xmlns:xlink="http://www.w3.org/1999/xlink" viewBox="0 0 417 129"><defs><style>.cls-1,.cls-8{fill:none;}.cls-2{clip-path:url(#clip-path);}.cls-3{clip-path:url(#clip-path-2);}.cls-4{fill:url(#linear-gradient);}.cls-5{fill:url(#linear-gradient-2);}.cls-6{fill:#2a2d67;}.cls-7{fill:#fff;}.cls-8{stroke:#fff;stroke-miterlimit:10;stroke-width:0.3px;}</style><clipPath id="clip-path"><path class="cls-1" d="M109,34.56,62.47,7.72a7,7,0,0,0-3.59-.92,6.7,6.7,0,0,0-3.17.72l-47.47,24A6,6,0,0,0,4.91,37V88.79a7.14,7.14,0,0,0,3.33,5.78l45.16,27.5a6.06,6.06,0,0,0,6.05.16l48.64-25.5a6.87,6.87,0,0,0,3.59-5.79L112,39.78A6.27,6.27,0,0,0,109,34.56"/></clipPath><clipPath id="clip-path-2"><rect class="cls-1" x="-32925" y="-29040.9" width="65535" height="65535"/></clipPath><linearGradient id="linear-gradient" x1="-379.8" y1="605.38" x2="-379.74" y2="605.38" gradientTransform="matrix(1920, 0, 0, -3742.1, 729220, 2267238.66)" gradientUnits="userSpaceOnUse"><stop offset="0" stop-color="#fff"/><stop offset="0.1" stop-color="#fff"/><stop offset="0.2" stop-color="#fff"/><stop offset="0.3" stop-color="#fff"/><stop offset="0.4" stop-color="#fff"/><stop offset="0.5" stop-color="#fff"/><stop offset="0.6" stop-color="#fff"/><stop offset="0.7" stop-color="#fff"/><stop offset="0.8" stop-color="#fff"/><stop offset="0.9" stop-color="#fff"/><stop offset="1" stop-color="#fff"/></linearGradient><linearGradient id="linear-gradient-2" x1="-379.8" y1="605.38" x2="-379.74" y2="605.38" gradientTransform="matrix(1920, 0, 0, -3742.1, 729220, 2267238.66)" gradientUnits="userSpaceOnUse"><stop offset="0" stop-color="#e6216d"/><stop offset="0.1" stop-color="#e4216d"/><stop offset="0.2" stop-color="#df216d"/><stop offset="0.3" stop-color="#d9216f"/><stop offset="0.4" stop-color="#d12170"/><stop offset="0.5" stop-color="#c82172"/><stop offset="0.6" stop-color="#bc2174"/><stop offset="0.7" stop-color="#af2176"/><stop offset="0.8" stop-color="#a02178"/><stop offset="0.9" stop-color="#90217a"/><stop offset="1" stop-color="#7e217c"/></linearGradient></defs><rect class="cls-1" x="-32925" y="-29040.9" width="65535" height="65535"/><g class="cls-2"><g id="Group_87" data-name="Group 87"><g id="Group_85" data-name="Group 85"><g class="cls-3"><g id="Group_84" data-name="Group 84"><g id="Group_83" data-name="Group 83"><path id="Path_49" data-name="Path 49" class="cls-4" d="M-157-16H1763V3726.1H-157Z"/></g></g></g></g><g id="Group_86" data-name="Group 86"><path id="Path_50" data-name="Path 50" class="cls-5" d="M-157-16H1763V3726.1H-157Z"/></g></g></g><g id="Group_88" data-name="Group 88"><path id="Path_52" data-name="Path 52" class="cls-6" d="M144.81,58.68v5.73c0,8-4,11.42-10.55,11.42A12.1,12.1,0,0,1,128,74.3V87.2h-7.93V48.08h5.22l1.28,1.74a11.29,11.29,0,0,1,7.68-2.56c6.45,0,10.55,3.38,10.55,11.42m-7.93.2c0-3-1.69-4.46-4.4-4.46S128,55.85,128,58.72v5.59c0,2.87,1.89,4.3,4.51,4.3s4.4-1.49,4.4-4.46Z"/></g><g id="Group_89" data-name="Group 89"><path id="Path_53" data-name="Path 53" class="cls-6" d="M165.35,47.51v6.86a10.85,10.85,0,0,0-2.77-.46c-2.71,0-5.17,1.64-5.17,5.38V75h-7.94V48h5.22l1.54,2.16a12.44,12.44,0,0,1,7.84-2.77c.46.05.87.05,1.28.1"/></g><g id="Group_90" data-name="Group 90"><path id="Path_54" data-name="Path 54" class="cls-6" d="M168.11,64.16V58.93c0-7.12,4.56-11.67,12.29-11.67s12.4,4.55,12.4,11.67V64.1c0,7.12-4.56,11.68-12.34,11.68s-12.35-4.51-12.35-11.62m16.7-.06V59c0-3-1.44-4.6-4.4-4.6S176,56,176,59V64.1c0,3,1.38,4.61,4.35,4.61s4.46-1.64,4.46-4.61"/></g><g id="Group_91" data-name="Group 91"><path id="Path_55" data-name="Path 55" class="cls-6" d="M221.37,34.3V75h-5.22l-1.28-1.79a11.09,11.09,0,0,1-7.68,2.61c-6.55,0-10.65-3.38-10.65-11.42V58.68c0-8,4.1-11.42,10.65-11.42a12,12,0,0,1,6.25,1.53V34.3Zm-7.94,30.06V58.78c0-2.87-1.84-4.3-4.55-4.3s-4.4,1.48-4.4,4.45v5.28c0,3,1.74,4.45,4.4,4.45s4.55-1.48,4.55-4.3"/></g><g id="Group_92" data-name="Group 92"><path id="Path_56" data-name="Path 56" class="cls-6" d="M250.2,48.08v27h-5l-1.38-1.79a10.2,10.2,0,0,1-7.12,2.61c-6,0-10-3.53-10-12.08V48.13h7.93V64c0,3.18,1.49,4.76,3.84,4.76a4,4,0,0,0,3.86-4.06c0-.08,0-.16,0-.24V48.13h7.93Z"/></g><g id="Group_93" data-name="Group 93"><path id="Path_57" data-name="Path 57" class="cls-6" d="M254.91,64.16V58.93c0-7.12,4.56-11.67,12-11.67,7.11,0,11.77,4.45,11.77,11.21v.77h-8v-1a3.55,3.55,0,0,0-3.24-3.84,4.21,4.21,0,0,0-.5,0c-2.77,0-4.2,1.59-4.2,4.61v5.08c0,3,1.38,4.6,4.2,4.6a3.53,3.53,0,0,0,3.74-3.34,4.17,4.17,0,0,0,0-.5v-1h8v.77c0,6.75-4.66,11.21-11.72,11.21-7.53,0-12.09-4.51-12.09-11.62"/></g><g id="Group_94" data-name="Group 94"><path id="Path_58" data-name="Path 58" class="cls-6" d="M299,67.89V75H294.5c-6.61,0-10-3.58-10-10.75V55.14h-3.58V48h3.58V40.49h7.94v7.58h6.2v7.12h-6.2v7.68c0,3.28,1.38,5,3.94,5Z"/></g><g id="Group_95" data-name="Group 95"><path id="Path_59" data-name="Path 59" class="cls-6" d="M325.58,51.86l-14.95,18.9h14.95v4.3h-21.1V71.53l15.06-19H305.2V48.33h20.33v3.53Z"/></g><g id="Group_96" data-name="Group 96"><path id="Path_60" data-name="Path 60" class="cls-6" d="M330.81,64.62V58.68c0-6.86,3.89-11.06,11.37-11.06s11.41,4.2,11.41,11.06v5.94c0,6.86-3.89,11.11-11.36,11.11s-11.42-4.25-11.42-11.11m18.28-.26V58.93c0-4.71-2-7-6.86-7s-6.92,2.3-6.92,7v5.38c0,4.71,2.05,7.07,6.86,7.07s6.92-2.31,6.92-7"/></g><g id="Group_97" data-name="Group 97"><path id="Path_61" data-name="Path 61" class="cls-6" d="M382.83,59.44V75.06h-4.45V59.54c0-5.22-2.36-7.63-6.61-7.63-3.79,0-6.45,1.85-7,5.94V75.06H360.3V48.38h3l.77,2.92c2-2.4,5-3.58,8.55-3.58,6.3-.1,10.19,3.42,10.19,11.72"/></g><g id="Group_98" data-name="Group 98"><path id="Path_62" data-name="Path 62" class="cls-6" d="M411.61,57.65V63H393.74v1.23c0,5,2.2,7.58,6.92,7.58,3.84,0,6.35-1.74,6.35-5v-.31h4.5c0,5.94-4.25,9.22-10.75,9.22-7.68,0-11.47-4.61-11.47-11.47V59.09c0-6.87,3.89-11.37,11.21-11.37,6.86-.1,11.11,3.94,11.11,9.93m-4.5,1.59V57.7c0-4.14-2.2-6.2-6.4-6.2-4.81,0-6.91,2.67-6.91,7.53v.2Z"/></g><g id="Group_99" data-name="Group 99"><path id="Path_63" data-name="Path 63" class="cls-7" d="M101.54,39,61.85,16.07a6.12,6.12,0,0,0-3.07-.77,5.92,5.92,0,0,0-2.71.62L15.51,36.4a5.21,5.21,0,0,0-2.87,4.66V85.31a6.21,6.21,0,0,0,2.82,5l38.61,23.46a5.19,5.19,0,0,0,5.17.15l41.53-21.76a6,6,0,0,0,3.07-4.92l.31-43.68A5.24,5.24,0,0,0,101.54,39M20,38.86,56.94,20.17a3.8,3.8,0,0,1,1.9-.41,4.52,4.52,0,0,1,2.1.51L96.62,41a.66.66,0,0,1,.26.9.7.7,0,0,1-.31.28l-13.31,6.7a1.61,1.61,0,0,0-.87,1.44,1.57,1.57,0,0,0,.82,1.43l.15.1a3.55,3.55,0,0,1,.87.67,5.25,5.25,0,0,1,.92,1c2,2.77,2.92,7.43,2.15,12.29-1,6.3-4.66,11.27-8.3,11.27a4.59,4.59,0,0,1-.82-.1c-1.79-.41-3.32-2-4.35-4.56A18.58,18.58,0,0,1,73,62.52a18.42,18.42,0,0,1,.67-2.87s0,0,0-.1c.1-.26.15-.56.26-.82a20.05,20.05,0,0,1,.92-2.2l.15-.26a1.62,1.62,0,0,0-1.48-2.36,1.41,1.41,0,0,0-.67.16h0L57.29,61.9a1.35,1.35,0,0,1-.56.1,1.71,1.71,0,0,1-.67-.1l-8.4-5,.87-.2.41-.15a23.89,23.89,0,0,0,10.2-7c2.56-3.17,3.23-6.45,2.2-9.37C60,36.45,56,34.1,50.38,34.1a25.65,25.65,0,0,0-8.75,1.63c-.2.06-.41.16-.57.21l-.15.05-.1,0h-.05c-.1.05-.21.05-.31.1l-.31.15-.1.06-.15,0-.1.05-.26.1-.2.1a1.3,1.3,0,0,0-.41.2l-.1,0a3.11,3.11,0,0,0-.41.2s0,0-.1,0a21,21,0,0,0-8.14,7.22v.05a1.31,1.31,0,0,0-.21.36,0,0,0,0,1,0,0h0l-.46.87-9.54-5.82a.55.55,0,0,1,.1-1M54.63,98.11V108.4a.66.66,0,0,1-1,.56L19.2,88a4.18,4.18,0,0,1-1.95-3.38V45.21a.65.65,0,0,1,.65-.67.61.61,0,0,1,.37.1l11.53,7a1.77,1.77,0,0,0,.87.26,1.63,1.63,0,0,0,1.64-1.6v-.24a2.58,2.58,0,0,1,.1-.92V49.1a8.87,8.87,0,0,1,.41-1.23,13.17,13.17,0,0,1,4.5-5.07c.67-.46,1.33-.87,2-1.28.31-.15.61-.31.87-.46.62-.31,1.23-.56,1.9-.82a20.23,20.23,0,0,1,7-1.33c3.79,0,6.45,1.23,7.17,3.33,1.23,3.48-3.33,8.6-9.68,11a18.27,18.27,0,0,1-3.17.92c-.1,0-.2.05-.31.05s-.31,0-.41.1h-.05c-.72.1-1.38.2-2,.26h-.31a1.58,1.58,0,0,0-1.48,1.23,1.62,1.62,0,0,0,.72,1.79l14.54,8.86a1.47,1.47,0,0,1,.56.92v9.53l-.46-.31a26.27,26.27,0,0,0-13.62-4.4c-3.43,0-6.2,1-8,2.82a7.05,7.05,0,0,0-1.94,4.3A6,6,0,0,0,30.67,81a9.48,9.48,0,0,0,.92,3.17c.25.52.51,1,.82,1.59a22.42,22.42,0,0,0,7.17,7.07,27.42,27.42,0,0,0,7.63,3.47,22.88,22.88,0,0,0,6,.87h.56l.87,0ZM99.24,86.38a4.08,4.08,0,0,1-2,3.33L60.73,108.86a.67.67,0,0,1-.9-.27.66.66,0,0,1-.08-.34L59.85,94A1.68,1.68,0,0,0,59,92.52a1.76,1.76,0,0,0-.81-.2,1.37,1.37,0,0,0-.77.2l-.16.1a9.26,9.26,0,0,1-1.43.57,8.62,8.62,0,0,1-1.13.2c-.51,0-1,.1-1.53.1A21.68,21.68,0,0,1,42,89.86c-.35-.26-.76-.51-1.07-.77C37.53,86.63,35.33,83.61,35,81a3.54,3.54,0,0,1,.87-3,6.62,6.62,0,0,1,4.71-1.64h.46A21.63,21.63,0,0,1,52.28,80a18,18,0,0,1,2.45,1.9c.1.1.2.15.31.26l.05,0,0,.05A23.42,23.42,0,0,1,56.78,84l.31.41a1.71,1.71,0,0,0,1.28.61,2.13,2.13,0,0,0,.56-.1A1.69,1.69,0,0,0,60,83.56s.05-.1.05-.2l.15-15.93a1.24,1.24,0,0,1,.57-.82L69.28,62l-.16,1A23.42,23.42,0,0,0,70.4,74.34c1.54,3.79,4,6.3,7.12,6.92a5.53,5.53,0,0,0,1.28.15h.36c4.66,0,9.07-4.25,11.27-10.8a21.53,21.53,0,0,0,1-4c0-.2,0-.41.1-.61v-.31c0-.1,0-.2,0-.31V65a.65.65,0,0,1,0-.31v-.56a1.13,1.13,0,0,1,.05-.41v-.67a21.11,21.11,0,0,0-2.25-10.5L89,51.91a1,1,0,0,0-.2-.3l.1,0,9.68-5.12a.66.66,0,0,1,.9.26.71.71,0,0,1,.07.35Z"/></g><g id="Group_100" data-name="Group 100"><path id="Path_64" data-name="Path 64" class="cls-8" d="M101.54,39,61.85,16.07a6.12,6.12,0,0,0-3.07-.77,5.92,5.92,0,0,0-2.71.62L15.51,36.4a5.21,5.21,0,0,0-2.87,4.66V85.31a6.21,6.21,0,0,0,2.82,5l38.61,23.46a5.19,5.19,0,0,0,5.17.15l41.53-21.76a6,6,0,0,0,3.07-4.92l.31-43.68A5.24,5.24,0,0,0,101.54,39ZM20,38.86,56.94,20.17a3.8,3.8,0,0,1,1.9-.41,4.52,4.52,0,0,1,2.1.51L96.62,41a.66.66,0,0,1,.26.9.7.7,0,0,1-.31.28l-13.31,6.7a1.61,1.61,0,0,0-.87,1.44,1.57,1.57,0,0,0,.82,1.43l.15.1a3.55,3.55,0,0,1,.87.67,5.25,5.25,0,0,1,.92,1c2,2.77,2.92,7.43,2.15,12.29-1,6.3-4.66,11.27-8.3,11.27a4.59,4.59,0,0,1-.82-.1c-1.79-.41-3.32-2-4.35-4.56A18.58,18.58,0,0,1,73,62.52a18.42,18.42,0,0,1,.67-2.87s0,0,0-.1c.1-.26.15-.56.26-.82a20.05,20.05,0,0,1,.92-2.2l.15-.26a1.62,1.62,0,0,0-1.48-2.36,1.41,1.41,0,0,0-.67.16h0L57.29,61.9a1.35,1.35,0,0,1-.56.1,1.71,1.71,0,0,1-.67-.1l-8.4-5,.87-.2.41-.15a23.89,23.89,0,0,0,10.2-7c2.56-3.17,3.23-6.45,2.2-9.37C60,36.45,56,34.1,50.38,34.1a25.65,25.65,0,0,0-8.75,1.63c-.2.06-.41.16-.57.21l-.15.05-.1,0h-.05c-.1.05-.21.05-.31.1l-.31.15-.1.06-.15,0-.1.05-.26.1-.2.1a1.3,1.3,0,0,0-.41.2l-.1,0a3.11,3.11,0,0,0-.41.2s0,0-.1,0a21,21,0,0,0-8.14,7.22v.05a1.31,1.31,0,0,0-.21.36,0,0,0,0,1,0,0h0l-.46.87-9.54-5.82a.55.55,0,0,1-.22-.75A.51.51,0,0,1,20,38.86ZM54.63,98.11V108.4a.66.66,0,0,1-.65.67.7.7,0,0,1-.37-.11L19.2,88a4.18,4.18,0,0,1-1.95-3.38V45.21a.65.65,0,0,1,.65-.67.61.61,0,0,1,.37.1l11.53,7a1.77,1.77,0,0,0,.87.26,1.63,1.63,0,0,0,1.64-1.6v-.24a2.58,2.58,0,0,1,.1-.92V49.1a8.87,8.87,0,0,1,.41-1.23,13.17,13.17,0,0,1,4.5-5.07c.67-.46,1.33-.87,2-1.28.31-.15.61-.31.87-.46.62-.31,1.23-.56,1.9-.82a20.23,20.23,0,0,1,7-1.33c3.79,0,6.45,1.23,7.17,3.33,1.23,3.48-3.33,8.6-9.68,11a18.27,18.27,0,0,1-3.17.92c-.1,0-.2.05-.31.05s-.31,0-.41.1h-.05c-.72.1-1.38.2-2,.26h-.31a1.58,1.58,0,0,0-1.48,1.23,1.62,1.62,0,0,0,.72,1.79l14.54,8.86a1.47,1.47,0,0,1,.56.92v9.53l-.46-.31a26.27,26.27,0,0,0-13.62-4.4c-3.43,0-6.2,1-8,2.82a7.05,7.05,0,0,0-1.94,4.3A6,6,0,0,0,30.67,81a9.48,9.48,0,0,0,.92,3.17c.25.52.51,1,.82,1.59a22.42,22.42,0,0,0,7.17,7.07,27.42,27.42,0,0,0,7.63,3.47,22.88,22.88,0,0,0,6,.87h.56l.87,0ZM99.24,86.38a4.08,4.08,0,0,1-2,3.33L60.73,108.86a.67.67,0,0,1-.9-.27.66.66,0,0,1-.08-.34L59.85,94A1.68,1.68,0,0,0,59,92.52a1.76,1.76,0,0,0-.81-.2,1.37,1.37,0,0,0-.77.2l-.16.1a9.26,9.26,0,0,1-1.43.57,8.62,8.62,0,0,1-1.13.2c-.51,0-1,.1-1.53.1A21.68,21.68,0,0,1,42,89.86c-.35-.26-.76-.51-1.07-.77C37.53,86.63,35.33,83.61,35,81a3.54,3.54,0,0,1,.87-3,6.62,6.62,0,0,1,4.71-1.64h.46A21.63,21.63,0,0,1,52.28,80a18,18,0,0,1,2.45,1.9c.1.1.2.15.31.26l.05,0,0,.05A23.42,23.42,0,0,1,56.78,84l.31.41a1.71,1.71,0,0,0,1.28.61,2.13,2.13,0,0,0,.56-.1A1.69,1.69,0,0,0,60,83.56s.05-.1.05-.2l.15-15.93a1.24,1.24,0,0,1,.57-.82L69.28,62l-.16,1A23.42,23.42,0,0,0,70.4,74.34c1.54,3.79,4,6.3,7.12,6.92a5.53,5.53,0,0,0,1.28.15h.36c4.66,0,9.07-4.25,11.27-10.8a21.53,21.53,0,0,0,1-4c0-.2,0-.41.1-.61v-.31c0-.1,0-.2,0-.31V65a.65.65,0,0,1,0-.31v-.56a1.13,1.13,0,0,1,.05-.41v-.67a21.11,21.11,0,0,0-2.25-10.5L89,51.91a1,1,0,0,0-.2-.3l.1,0,9.68-5.12a.66.66,0,0,1,.9.26.71.71,0,0,1,.07.35Z"/></g></svg>