<svg xmlns="http://www.w3.org/2000/svg" width="29.306" height="29.305" viewBox="0 0 29.306 29.305">
  <g id="Group_288" data-name="Group 288" transform="translate(14.653 11.163)">
    <path id="Path_203" data-name="Path 203" d="M0,0A3.489,3.489,0,0,0-3.488,3.49,3.49,3.49,0,0,0,0,6.978,3.488,3.488,0,0,0,3.49,3.489,3.491,3.491,0,0,0,0,0M8.158-2.682a3.532,3.532,0,0,0-1.99-1.989C4.8-5.213,1.524-5.092,0-5.092s-4.792-.126-6.169.421A3.531,3.531,0,0,0-8.158-2.682c-.542,1.374-.421,4.648-.421,6.17S-8.7,8.281-8.156,9.66a3.535,3.535,0,0,0,1.99,1.989c1.373.542,4.644.42,6.169.42s4.79.127,6.168-.42A3.534,3.534,0,0,0,8.16,9.66c.546-1.374.421-4.648.421-6.171S8.706-1.3,8.16-2.681ZM0,8.853A5.364,5.364,0,0,1-5.364,3.489,5.365,5.365,0,0,1,0-1.875,5.365,5.365,0,0,1,5.364,3.489,5.358,5.358,0,0,1,.013,8.853H0m5.585-9.7A1.253,1.253,0,0,1,4.332-2.1,1.253,1.253,0,0,1,5.584-3.352,1.252,1.252,0,0,1,6.836-2.1h0A1.25,1.25,0,0,1,5.592-.845h0Zm5.928-10.315H-11.513a3.139,3.139,0,0,0-3.14,3.139V15a3.14,3.14,0,0,0,3.14,3.14H11.513A3.14,3.14,0,0,0,14.653,15V-8.024a3.139,3.139,0,0,0-3.14-3.139M10.393,7.806A6.227,6.227,0,0,1,8.7,12.189,6.226,6.226,0,0,1,4.319,13.88c-1.727.1-6.907.1-8.634,0A6.235,6.235,0,0,1-8.7,12.189a6.2,6.2,0,0,1-1.691-4.383c-.1-1.728-.1-6.908,0-8.634A6.2,6.2,0,0,1-8.7-5.211,6.242,6.242,0,0,1-4.315-6.9c1.727-.1,6.907-.1,8.634,0A6.227,6.227,0,0,1,8.7-5.206,6.228,6.228,0,0,1,10.393-.82c.1,1.721.1,6.9,0,8.626" fill="#fff"/>
  </g>
</svg>
