<svg xmlns="http://www.w3.org/2000/svg" width="29.305" height="29.305" viewBox="0 0 29.305 29.305">
  <g id="Group_286" data-name="Group 286" transform="translate(26.165)">
    <path id="Path_201" data-name="Path 201" d="M0,0H-23.025a3.14,3.14,0,0,0-3.14,3.14V26.165a3.14,3.14,0,0,0,3.14,3.14H0a3.141,3.141,0,0,0,3.14-3.14V3.14A3.141,3.141,0,0,0,0,0M-3.2,10.388c.013.183.013.372.013.556A12.123,12.123,0,0,1-15.392,23.15a12.156,12.156,0,0,1-6.587-1.923,9.1,9.1,0,0,0,1.034.052,8.594,8.594,0,0,0,5.324-1.832,4.293,4.293,0,0,1-4.009-2.976,4.635,4.635,0,0,0,1.936-.078,4.291,4.291,0,0,1-3.434-4.213v-.052a4.3,4.3,0,0,0,1.936.543A4.281,4.281,0,0,1-21.1,9.1a4.233,4.233,0,0,1,.582-2.165,12.182,12.182,0,0,0,8.844,4.487A4.3,4.3,0,0,1-7.49,6.149,4.272,4.272,0,0,1-4.357,7.5,8.4,8.4,0,0,0-1.635,6.469,4.283,4.283,0,0,1-3.519,8.831a8.562,8.562,0,0,0,2.472-.667A9.041,9.041,0,0,1-3.2,10.388" fill="#fff"/>
  </g>
</svg>
